<svg id="visual" viewBox="0 0 900 600" width="900" height="600" xmlns="http://www.w3.org/2000/svg" xmlns:xlink="http://www.w3.org/1999/xlink" version="1.1"><rect x="0" y="0" width="900" height="600" fill="#FBFAF9"></rect><path d="M0 142L25 134.3C50 126.7 100 111.3 150 103.7C200 96 250 96 300 99.5C350 103 400 110 450 117.7C500 125.3 550 133.7 600 133.7C650 133.7 700 125.3 750 121.5C800 117.7 850 118.3 875 118.7L900 119L900 0L875 0C850 0 800 0 750 0C700 0 650 0 600 0C550 0 500 0 450 0C400 0 350 0 300 0C250 0 200 0 150 0C100 0 50 0 25 0L0 0Z" fill="#001122" stroke-linecap="round" stroke-linejoin="miter"></path></svg>