<svg id="visual" viewBox="0 0 900 600" width="900" height="600" xmlns="http://www.w3.org/2000/svg" xmlns:xlink="http://www.w3.org/1999/xlink" version="1.1"><rect x="0" y="0" width="900" height="600" fill="#FBFAF9"></rect><path d="M0 456L25 463.7C50 471.3 100 486.7 150 494.3C200 502 250 502 300 498.5C350 495 400 488 450 480.3C500 472.7 550 464.3 600 464.3C650 464.3 700 472.7 750 476.5C800 480.3 850 479.7 875 479.3L900 479L900 601L875 601C850 601 800 601 750 601C700 601 650 601 600 601C550 601 500 601 450 601C400 601 350 601 300 601C250 601 200 601 150 601C100 601 50 601 25 601L0 601Z" fill="#001122" stroke-linecap="round" stroke-linejoin="miter"></path></svg>